<mxfile host="app.diagrams.net" modified="2023-11-12T02:36:34.105Z" agent="Mozilla/5.0 (Macintosh; Intel Mac OS X 10_15_7) AppleWebKit/605.1.15 (KHTML, like Gecko) Version/17.0 Safari/605.1.15" etag="tiamXRj1Wke5Lsl78dZ9" version="22.1.0" type="device">
  <diagram name="Сторінка-1" id="iwlq8GoqFiPXlJlaWXsb">
    <mxGraphModel dx="1197" dy="767" grid="1" gridSize="10" guides="1" tooltips="1" connect="1" arrows="1" fold="1" page="1" pageScale="1" pageWidth="2339" pageHeight="3300" math="0" shadow="0">
      <root>
        <mxCell id="0" />
        <mxCell id="1" parent="0" />
        <mxCell id="HkXwXrworj26vM6zrufT-3" value="" style="edgeStyle=orthogonalEdgeStyle;rounded=0;orthogonalLoop=1;jettySize=auto;html=1;" edge="1" parent="1" source="HkXwXrworj26vM6zrufT-1" target="HkXwXrworj26vM6zrufT-2">
          <mxGeometry relative="1" as="geometry" />
        </mxCell>
        <mxCell id="HkXwXrworj26vM6zrufT-1" value="&lt;font style=&quot;font-size: 20px;&quot;&gt;Start&lt;/font&gt;" style="strokeWidth=2;html=1;shape=mxgraph.flowchart.start_1;whiteSpace=wrap;" vertex="1" parent="1">
          <mxGeometry x="370" y="60" width="100" height="60" as="geometry" />
        </mxCell>
        <mxCell id="HkXwXrworj26vM6zrufT-13" value="" style="edgeStyle=orthogonalEdgeStyle;rounded=0;orthogonalLoop=1;jettySize=auto;html=1;" edge="1" parent="1" source="HkXwXrworj26vM6zrufT-2" target="HkXwXrworj26vM6zrufT-11">
          <mxGeometry relative="1" as="geometry" />
        </mxCell>
        <mxCell id="HkXwXrworj26vM6zrufT-2" value="computerChoise (rundom),&lt;br&gt;userChoise" style="rounded=1;whiteSpace=wrap;html=1;absoluteArcSize=1;arcSize=14;strokeWidth=2;" vertex="1" parent="1">
          <mxGeometry x="360" y="150" width="120" height="60" as="geometry" />
        </mxCell>
        <mxCell id="HkXwXrworj26vM6zrufT-9" value="" style="edgeStyle=orthogonalEdgeStyle;rounded=0;orthogonalLoop=1;jettySize=auto;html=1;" edge="1" parent="1">
          <mxGeometry x="-0.9333" y="30" relative="1" as="geometry">
            <mxPoint x="420" y="409" as="sourcePoint" />
            <mxPoint x="420" y="439" as="targetPoint" />
            <mxPoint as="offset" />
          </mxGeometry>
        </mxCell>
        <mxCell id="HkXwXrworj26vM6zrufT-10" value="False" style="edgeLabel;html=1;align=center;verticalAlign=middle;resizable=0;points=[];" vertex="1" connectable="0" parent="HkXwXrworj26vM6zrufT-9">
          <mxGeometry x="-0.3333" y="-1" relative="1" as="geometry">
            <mxPoint as="offset" />
          </mxGeometry>
        </mxCell>
        <mxCell id="HkXwXrworj26vM6zrufT-16" value="" style="edgeStyle=orthogonalEdgeStyle;rounded=0;orthogonalLoop=1;jettySize=auto;html=1;" edge="1" parent="1" source="HkXwXrworj26vM6zrufT-6" target="HkXwXrworj26vM6zrufT-14">
          <mxGeometry relative="1" as="geometry" />
        </mxCell>
        <mxCell id="HkXwXrworj26vM6zrufT-18" value="True" style="edgeLabel;html=1;align=center;verticalAlign=middle;resizable=0;points=[];" vertex="1" connectable="0" parent="HkXwXrworj26vM6zrufT-16">
          <mxGeometry x="-0.2118" y="-5" relative="1" as="geometry">
            <mxPoint x="6" y="-15" as="offset" />
          </mxGeometry>
        </mxCell>
        <mxCell id="HkXwXrworj26vM6zrufT-6" value="if CC == UC" style="strokeWidth=2;html=1;shape=mxgraph.flowchart.decision;whiteSpace=wrap;" vertex="1" parent="1">
          <mxGeometry x="370" y="310" width="100" height="100" as="geometry" />
        </mxCell>
        <mxCell id="HkXwXrworj26vM6zrufT-17" value="" style="edgeStyle=orthogonalEdgeStyle;rounded=0;orthogonalLoop=1;jettySize=auto;html=1;" edge="1" parent="1" source="HkXwXrworj26vM6zrufT-7" target="HkXwXrworj26vM6zrufT-15">
          <mxGeometry relative="1" as="geometry" />
        </mxCell>
        <mxCell id="HkXwXrworj26vM6zrufT-19" value="True" style="edgeLabel;html=1;align=center;verticalAlign=middle;resizable=0;points=[];" vertex="1" connectable="0" parent="HkXwXrworj26vM6zrufT-17">
          <mxGeometry x="-0.0088" relative="1" as="geometry">
            <mxPoint y="-10" as="offset" />
          </mxGeometry>
        </mxCell>
        <mxCell id="HkXwXrworj26vM6zrufT-21" style="edgeStyle=orthogonalEdgeStyle;rounded=0;orthogonalLoop=1;jettySize=auto;html=1;exitX=0.5;exitY=1;exitDx=0;exitDy=0;exitPerimeter=0;" edge="1" parent="1" source="HkXwXrworj26vM6zrufT-7" target="HkXwXrworj26vM6zrufT-20">
          <mxGeometry relative="1" as="geometry" />
        </mxCell>
        <mxCell id="HkXwXrworj26vM6zrufT-22" value="False" style="edgeLabel;html=1;align=center;verticalAlign=middle;resizable=0;points=[];" vertex="1" connectable="0" parent="HkXwXrworj26vM6zrufT-21">
          <mxGeometry x="-0.1603" y="-1" relative="1" as="geometry">
            <mxPoint x="-32" y="-11" as="offset" />
          </mxGeometry>
        </mxCell>
        <mxCell id="HkXwXrworj26vM6zrufT-7" value="if UC == 0 and CC == 1 or&lt;br&gt;&amp;nbsp; &amp;nbsp;UC == 1 and CC == 2 or&lt;br&gt;UC == 2 and CC == 0&amp;nbsp;" style="strokeWidth=2;html=1;shape=mxgraph.flowchart.decision;whiteSpace=wrap;" vertex="1" parent="1">
          <mxGeometry x="315" y="440" width="210" height="140" as="geometry" />
        </mxCell>
        <mxCell id="HkXwXrworj26vM6zrufT-12" value="" style="edgeStyle=orthogonalEdgeStyle;rounded=0;orthogonalLoop=1;jettySize=auto;html=1;" edge="1" parent="1" source="HkXwXrworj26vM6zrufT-11" target="HkXwXrworj26vM6zrufT-6">
          <mxGeometry relative="1" as="geometry" />
        </mxCell>
        <mxCell id="HkXwXrworj26vM6zrufT-11" value="userChoise" style="shape=parallelogram;html=1;strokeWidth=2;perimeter=parallelogramPerimeter;whiteSpace=wrap;rounded=1;arcSize=12;size=0.23;" vertex="1" parent="1">
          <mxGeometry x="360" y="240" width="120" height="40" as="geometry" />
        </mxCell>
        <mxCell id="HkXwXrworj26vM6zrufT-14" value="&quot;It`s a tie!&quot;" style="shape=parallelogram;html=1;strokeWidth=2;perimeter=parallelogramPerimeter;whiteSpace=wrap;rounded=1;arcSize=12;size=0.23;" vertex="1" parent="1">
          <mxGeometry x="560" y="340" width="100" height="40" as="geometry" />
        </mxCell>
        <mxCell id="HkXwXrworj26vM6zrufT-15" value="&quot;You win!&quot;" style="shape=parallelogram;html=1;strokeWidth=2;perimeter=parallelogramPerimeter;whiteSpace=wrap;rounded=1;arcSize=12;size=0.23;" vertex="1" parent="1">
          <mxGeometry x="560" y="490" width="100" height="40" as="geometry" />
        </mxCell>
        <mxCell id="HkXwXrworj26vM6zrufT-20" value="&quot;You loss!&quot;" style="shape=parallelogram;html=1;strokeWidth=2;perimeter=parallelogramPerimeter;whiteSpace=wrap;rounded=1;arcSize=12;size=0.23;" vertex="1" parent="1">
          <mxGeometry x="560" y="580" width="100" height="40" as="geometry" />
        </mxCell>
        <mxCell id="HkXwXrworj26vM6zrufT-23" value="&lt;font style=&quot;font-size: 20px;&quot;&gt;End&lt;/font&gt;" style="strokeWidth=2;html=1;shape=mxgraph.flowchart.start_1;whiteSpace=wrap;" vertex="1" parent="1">
          <mxGeometry x="650" y="650" width="100" height="60" as="geometry" />
        </mxCell>
        <mxCell id="HkXwXrworj26vM6zrufT-24" value="" style="endArrow=classic;html=1;rounded=0;exitX=1;exitY=0.5;exitDx=0;exitDy=0;entryX=0.5;entryY=0;entryDx=0;entryDy=0;entryPerimeter=0;" edge="1" parent="1" source="HkXwXrworj26vM6zrufT-14" target="HkXwXrworj26vM6zrufT-23">
          <mxGeometry width="50" height="50" relative="1" as="geometry">
            <mxPoint x="530" y="570" as="sourcePoint" />
            <mxPoint x="580" y="520" as="targetPoint" />
            <Array as="points">
              <mxPoint x="700" y="360" />
            </Array>
          </mxGeometry>
        </mxCell>
        <mxCell id="HkXwXrworj26vM6zrufT-25" value="" style="endArrow=none;html=1;rounded=0;exitX=1;exitY=0.5;exitDx=0;exitDy=0;" edge="1" parent="1" source="HkXwXrworj26vM6zrufT-15">
          <mxGeometry width="50" height="50" relative="1" as="geometry">
            <mxPoint x="590" y="540" as="sourcePoint" />
            <mxPoint x="700" y="510" as="targetPoint" />
          </mxGeometry>
        </mxCell>
        <mxCell id="HkXwXrworj26vM6zrufT-26" value="" style="endArrow=none;html=1;rounded=0;exitX=1;exitY=0.5;exitDx=0;exitDy=0;" edge="1" parent="1" source="HkXwXrworj26vM6zrufT-20">
          <mxGeometry width="50" height="50" relative="1" as="geometry">
            <mxPoint x="530" y="570" as="sourcePoint" />
            <mxPoint x="700" y="600" as="targetPoint" />
          </mxGeometry>
        </mxCell>
      </root>
    </mxGraphModel>
  </diagram>
</mxfile>
